<?xml version="1.0" encoding="utf-8"?>
<!-- Generator: Adobe Illustrator 21.1.0, SVG Export Plug-In . SVG Version: 6.00 Build 0)  -->
<svg version="1.1" id="Calque_1" xmlns="http://www.w3.org/2000/svg" xmlns:xlink="http://www.w3.org/1999/xlink" x="0px" y="0px"
	 viewBox="0 0 48 48" style="enable-background:new 0 0 48 48;" xml:space="preserve">
<style type="text/css">
	.st0{fill:#B4B4B4;}
	.st1{fill:#CECECE;}
	.st2{fill:#959595;}
	.st3{fill:#DBDBDB;}
	.st4{fill:#727272;}
</style>
<title>handout</title>
<path class="st0" d="M24,3.6L24,3.6c11.3,0,20.4,9.1,20.4,20.4v0c0,11.3-9.1,20.4-20.4,20.4h0C12.7,44.4,3.6,35.3,3.6,24v0
	C3.6,12.7,12.7,3.6,24,3.6z"/>
<g transform="translate(13.200000000000001 13.200000000000001) scale(0.45)">
	<circle class="st1" cx="33" cy="17" r="6"/>
	<circle class="st1" cx="19" cy="7" r="6"/>
	<path class="st2" d="M21,8h-4c-0.6,0-1-0.4-1-1s0.4-1,1-1h4c0.6,0,1,0.4,1,1S21.6,8,21,8z"/>
	<path class="st2" d="M35,18h-4c-0.6,0-1-0.4-1-1s0.4-1,1-1h4c0.6,0,1,0.4,1,1S35.6,18,35,18z"/>
	<path class="st3" d="M44,35.3l-17.5,1.5c-1.6,0.1-3.2-0.2-4.7-1L17,33h11.3c1.5,0,2.7-1.2,2.7-2.7v0c0-1.3-0.9-2.4-2.2-2.7
		l-10.1-1.9c-2.4-0.5-4.9-0.7-7.4-0.7H3v14.5l16.4,6.9c1.8,0.7,3.8,0.7,5.7,0.2L47,38v0C47,36.4,45.6,35.1,44,35.3z"/>
	<path class="st4" d="M7,44H2c-0.6,0-1-0.4-1-1V24c0-0.6,0.4-1,1-1h5c0.6,0,1,0.4,1,1v19C8,43.6,7.6,44,7,44z"/>
</g>
</svg>
