<?xml version="1.0" encoding="utf-8"?>
<!-- Generator: Adobe Illustrator 21.1.0, SVG Export Plug-In . SVG Version: 6.00 Build 0)  -->
<svg version="1.1" id="Calque_1" xmlns="http://www.w3.org/2000/svg" xmlns:xlink="http://www.w3.org/1999/xlink" x="0px" y="0px"
	 viewBox="0 0 48 48" style="enable-background:new 0 0 48 48;" xml:space="preserve">
<style type="text/css">
	.st0{fill:#B4B4B4;}
	.st1{fill:#C7C7C7;}
	.st2{fill:#727272;}
</style>
<title>like 2</title>
<path class="st0" d="M24,3.6L24,3.6c11.3,0,20.4,9.1,20.4,20.4v0c0,11.3-9.1,20.4-20.4,20.4h0C12.7,44.4,3.6,35.3,3.6,24v0
	C3.6,12.7,12.7,3.6,24,3.6z"/>
<g transform="translate(13.200000000000001 13.200000000000001) scale(0.45)">
	<path class="st1" d="M38,45H24c-2.7,0-5.5-0.7-7.9-1.9l-4.5-2.3C11.2,40.7,11,40.4,11,40V26c0-0.2,0.1-0.5,0.2-0.6L21,13.6V6
		c0-1.1,0.6-2,1.5-2.6c0.9-0.5,2-0.5,3,0c3.4,2,3.5,7,3.5,10.6v5h11c2.8,0,5,2.2,5,5c0,0,0,0.1,0,0.1l-2,15.9C43,42.8,40.7,45,38,45
		z"/>
	<path class="st2" d="M12,45H4c-0.6,0-1-0.4-1-1V22c0-0.6,0.4-1,1-1h8c0.6,0,1,0.4,1,1v22C13,44.6,12.6,45,12,45z"/>
</g>
</svg>
